# Blender v2.72 (sub 0) OBJ File: ''
# www.blender.org
mtllib dualcubes.mtl
o Cube
v 0.000000 -1.000000 3.000000
v 0.000000 1.000000 3.000000
v 2.000000 1.000000 3.000000
v 2.000000 -1.000000 3.000000
v -0.000000 -0.999999 5.000000
v 0.000001 1.000001 5.000000
v 2.000000 1.000000 5.000000
v 2.000000 -1.000000 5.000000
v -2.000000 -1.000000 0.000000
v -2.000000 1.000000 0.000000
v 0.000000 1.000000 0.000000
v -0.000000 -1.000000 0.000000
v -2.000000 -0.999999 2.000000
v -1.999999 1.000001 2.000000
v 0.000000 1.000000 2.000000
v -0.000000 -1.000000 2.000000
vn 0.000000 0.000000 -1.000000
vn 0.000000 0.000000 1.000000
vn -1.000000 0.000000 0.000000
vn 0.000000 1.000000 -0.000000
vn 1.000000 -0.000000 -0.000000
vn -0.000000 -1.000000 0.000000
usemtl Material
s off
f 1//1 2//1 3//1 4//1
f 5//2 8//2 7//2 6//2
f 1//3 5//3 6//3 2//3
f 2//4 6//4 7//4 3//4
f 3//5 7//5 8//5 4//5
f 5//6 1//6 4//6 8//6
f 9//1 10//1 11//1 12//1
f 13//2 16//2 15//2 14//2
f 9//3 13//3 14//3 10//3
f 10//4 14//4 15//4 11//4
f 11//5 15//5 16//5 12//5
f 13//6 9//6 12//6 16//6
